<svg width="60" height="60" viewBox="0 0 60 60" fill="none" xmlns="http://www.w3.org/2000/svg">
<path d="M54.5138 25.1038H52.5V25H30V35H44.1288C42.0675 40.8213 36.5288 45 30 45C21.7163 45 15 38.2838 15 30C15 21.7163 21.7163 15 30 15C33.8238 15 37.3025 16.4425 39.9513 18.7988L47.0225 11.7275C42.5575 7.56625 36.585 5 30 5C16.1938 5 5 16.1938 5 30C5 43.8063 16.1938 55 30 55C43.8063 55 55 43.8063 55 30C55 28.3238 54.8275 26.6875 54.5138 25.1038Z" fill="#FFC107"/>
<path d="M7.88257 18.3637L16.0963 24.3875C18.3188 18.885 23.7013 15 30.0001 15C33.8238 15 37.3026 16.4425 39.9513 18.7987L47.0226 11.7275C42.5576 7.56625 36.5851 5 30.0001 5C20.3976 5 12.0701 10.4212 7.88257 18.3637Z" fill="#FF3D00"/>
<path d="M29.9999 54.9999C36.4574 54.9999 42.3249 52.5286 46.7612 48.5099L39.0237 41.9624C36.4293 43.9354 33.2592 45.0025 29.9999 44.9999C23.4974 44.9999 17.9762 40.8536 15.8962 35.0674L7.74365 41.3486C11.8812 49.4449 20.2837 54.9999 29.9999 54.9999Z" fill="#4CAF50"/>
<path d="M54.5138 25.1038H52.5V25H30V35H44.1288C43.1428 37.7705 41.3667 40.1915 39.02 41.9637L39.0238 41.9613L46.7613 48.5087C46.2138 49.0062 55 42.5 55 30C55 28.3238 54.8275 26.6875 54.5138 25.1038Z" fill="#1976D2"/>
</svg>
