<svg width="36" height="39" viewBox="0 0 36 39" fill="none" xmlns="http://www.w3.org/2000/svg">
    <g clip-path="url(#clip0_609_131)">
        <path fill-rule="evenodd" clip-rule="evenodd"
            d="M13.8082 8.1088C13.8082 7.24856 14.1199 6.42354 14.6748 5.81525C15.2297 5.20697 15.9823 4.86523 16.7671 4.86523H19.726C20.5108 4.86523 21.2634 5.20697 21.8183 5.81525C22.3732 6.42354 22.685 7.24856 22.685 8.1088V14.5959H28.6028C29.3876 14.5959 30.1402 14.9377 30.6951 15.546C31.25 16.1543 31.5617 16.9793 31.5617 17.8395V21.0831C31.5617 21.9433 31.25 22.7683 30.6951 23.3766C30.1402 23.9849 29.3876 24.3267 28.6028 24.3267H22.685V30.8138C22.685 31.674 22.3732 32.4991 21.8183 33.1073C21.2634 33.7156 20.5108 34.0574 19.726 34.0574H16.7671C15.9823 34.0574 15.2297 33.7156 14.6748 33.1073C14.1199 32.4991 13.8082 31.674 13.8082 30.8138V24.3267H7.89032C7.10557 24.3267 6.35295 23.9849 5.79805 23.3766C5.24314 22.7683 4.9314 21.9433 4.9314 21.0831V17.8395C4.9314 16.9793 5.24314 16.1543 5.79805 15.546C6.35295 14.9377 7.10557 14.5959 7.89032 14.5959H13.8082V8.1088Z"
            fill="#3D3A35" />
    </g>
    <defs>
        <clipPath id="clip0_609_131">
            <rect width="35.5071" height="38.9228" fill="white" transform="translate(0.49292)" />
        </clipPath>
    </defs>
</svg>