<svg width="418" height="108" viewBox="0 0 418 108" fill="none" xmlns="http://www.w3.org/2000/svg">
<line x1="41" y1="44" x2="377" y2="44" stroke="#D9D9D9" stroke-width="2"/>
<circle cx="41" cy="45" r="40" fill="#D9D9D9"/>
<circle cx="377" cy="45" r="40" fill="#7D3EF7"/>
<circle cx="209" cy="45" r="40" fill="#D9D9D9"/>
<path d="M373.805 51.844L366.091 44.1276L368.662 41.5567L373.805 46.6985L384.089 36.4131L386.662 38.9858L373.805 51.844Z" fill="white"/>
<path fill-rule="evenodd" clip-rule="evenodd" d="M357 44C357 32.9545 365.955 24 377 24C388.045 24 397 32.9545 397 44C397 55.0455 388.045 64 377 64C365.955 64 357 55.0455 357 44ZM377 60.3636C374.851 60.3636 372.723 59.9404 370.738 59.118C368.753 58.2957 366.949 57.0903 365.429 55.5708C363.91 54.0513 362.704 52.2474 361.882 50.2621C361.06 48.2768 360.636 46.1489 360.636 44C360.636 41.8511 361.06 39.7232 361.882 37.7379C362.704 35.7526 363.91 33.9487 365.429 32.4292C366.949 30.9097 368.753 29.7043 370.738 28.882C372.723 28.0596 374.851 27.6364 377 27.6364C381.34 27.6364 385.502 29.3604 388.571 32.4292C391.64 35.4979 393.364 39.6601 393.364 44C393.364 48.3399 391.64 52.5021 388.571 55.5708C385.502 58.6396 381.34 60.3636 377 60.3636Z" fill="white"/>
<path d="M202.44 52.9246L205.962 51.9087L227.168 30.45C227.335 30.2786 227.428 30.0483 227.427 29.8088C227.426 29.5693 227.331 29.3399 227.162 29.17L225.892 27.8861C225.81 27.8018 225.712 27.7347 225.604 27.6886C225.495 27.6426 225.379 27.6186 225.261 27.6181C225.144 27.6175 225.027 27.6404 224.918 27.6854C224.809 27.7304 224.711 27.7966 224.628 27.8801L203.478 49.2829L202.44 52.9246ZM228.406 25.3423L229.676 26.6282C231.428 28.4021 231.444 31.2639 229.708 33.0198L207.856 55.1345L200.328 57.3024C199.868 57.431 199.377 57.3721 198.96 57.1385C198.544 56.9049 198.238 56.5158 198.108 56.0565C198.012 55.7262 198.01 55.3755 198.104 55.0445L200.294 47.365L222.088 25.3083C222.502 24.891 222.996 24.5604 223.539 24.3358C224.083 24.1112 224.666 23.9971 225.254 24.0001C225.842 24.003 226.423 24.1231 226.965 24.3532C227.506 24.5833 227.996 24.9208 228.406 25.3423ZM205.368 27.6481C206.36 27.6481 207.164 28.4621 207.164 29.466C207.166 29.7033 207.12 29.9387 207.031 30.1585C206.941 30.3783 206.81 30.5784 206.643 30.7472C206.476 30.916 206.278 31.0503 206.059 31.1424C205.84 31.2345 205.605 31.2826 205.368 31.2839H198.184C196.2 31.2839 194.592 32.9118 194.592 34.9177V56.7284C194.592 58.7363 196.2 60.3642 198.184 60.3642H219.736C221.72 60.3642 223.33 58.7363 223.33 56.7284V49.4589C223.33 48.4549 224.134 47.641 225.126 47.641C226.118 47.641 226.922 48.4549 226.922 49.4609V56.7284C226.922 60.7442 223.704 64 219.736 64H198.184C194.216 64 191 60.7442 191 56.7284V34.9177C191 30.9039 194.216 27.6481 198.184 27.6481H205.368Z" fill="white"/>
<mask id="mask0_58_236" style="mask-type:luminance" maskUnits="userSpaceOnUse" x="23" y="22" width="36" height="43">
<path d="M55 24.75H27C25.8954 24.75 25 25.5895 25 26.625V60.375C25 61.4105 25.8954 62.25 27 62.25H55C56.1046 62.25 57 61.4105 57 60.375V26.625C57 25.5895 56.1046 24.75 55 24.75Z" stroke="white" stroke-width="4" stroke-linecap="round" stroke-linejoin="round"/>
<path d="M33 24.75H42V39.75L37.5 36L33 39.75V24.75Z" fill="#555555" stroke="white" stroke-width="4" stroke-linecap="round" stroke-linejoin="round"/>
<path d="M33 47.25H43M33 52.875H49" stroke="white" stroke-width="4" stroke-linecap="round"/>
</mask>
<g mask="url(#mask0_58_236)">
<path d="M17 21H65V66H17V21Z" fill="white"/>
</g>
<path d="M25.4062 94.354H27.6042V95.334H25.4062V94.354ZM25.4062 97.07H27.6042V98.036H25.4062V97.07ZM24.5942 92.436H25.7562V99.954H24.5942V92.436ZM17.5382 100.556H25.7562V105.092H24.5942V101.494H17.5382V100.556ZM19.4702 93.178C21.3742 93.178 22.7742 94.41 22.7742 96.188C22.7742 97.952 21.3742 99.17 19.4702 99.17C17.5662 99.17 16.1662 97.952 16.1662 96.188C16.1662 94.41 17.5662 93.178 19.4702 93.178ZM19.4702 94.172C18.2102 94.172 17.3002 94.984 17.3002 96.188C17.3002 97.378 18.2102 98.204 19.4702 98.204C20.7302 98.204 21.6402 97.378 21.6402 96.188C21.6402 94.984 20.7302 94.172 19.4702 94.172ZM29.4931 93.416H35.0931V94.368H29.4931V93.416ZM31.3971 96.244H32.5451V99.408H31.3971V96.244ZM34.6311 93.416H35.7791V94.088C35.7791 94.914 35.7791 96.174 35.4431 97.84L34.3091 97.714C34.6311 96.048 34.6311 94.9 34.6311 94.088V93.416ZM37.5011 92.436H38.6631V101.97H37.5011V92.436ZM38.1311 96.552H40.4691V97.518H38.1311V96.552ZM30.6691 103.86H39.0691V104.812H30.6691V103.86ZM30.6691 101.088H31.8171V104.154H30.6691V101.088ZM28.8491 99.954L28.7231 99.002C30.9771 99.002 34.0851 98.946 36.6471 98.596L36.7311 99.436C34.0991 99.898 31.0751 99.954 28.8491 99.954ZM41.7 98.666H53.138V99.618H41.7V98.666ZM46.838 96.636H47.986V99.058H46.838V96.636ZM43.142 96.272H51.808V97.224H43.142V96.272ZM43.142 93.01H51.71V93.948H44.29V96.832H43.142V93.01ZM47.398 100.528C50.1 100.528 51.738 101.354 51.738 102.796C51.738 104.266 50.1 105.078 47.398 105.078C44.696 105.078 43.058 104.266 43.058 102.796C43.058 101.354 44.696 100.528 47.398 100.528ZM47.398 101.424C45.424 101.424 44.234 101.928 44.234 102.796C44.234 103.678 45.424 104.168 47.398 104.168C49.386 104.168 50.562 103.678 50.562 102.796C50.562 101.928 49.386 101.424 47.398 101.424ZM58.6809 93.346C60.6549 93.346 62.0689 94.564 62.0689 96.328C62.0689 98.106 60.6549 99.324 58.6809 99.324C56.7069 99.324 55.2789 98.106 55.2789 96.328C55.2789 94.564 56.7069 93.346 58.6809 93.346ZM58.6809 94.354C57.3649 94.354 56.4129 95.152 56.4129 96.328C56.4129 97.504 57.3649 98.316 58.6809 98.316C59.9829 98.316 60.9349 97.504 60.9349 96.328C60.9349 95.152 59.9829 94.354 58.6809 94.354ZM63.7209 92.422H64.8829V105.106H63.7209V92.422ZM54.8029 102.334L54.6349 101.368C56.9449 101.368 60.1369 101.354 62.8949 100.92L62.9929 101.774C60.1509 102.32 57.0569 102.334 54.8029 102.334Z" fill="#D9D9D9"/>
<path d="M190.69 95.712H193.546V96.678H190.69V95.712ZM193.182 92.436H194.344V99.982H193.182V92.436ZM190.186 100.36C192.79 100.36 194.4 101.242 194.4 102.726C194.4 104.224 192.79 105.078 190.186 105.078C187.568 105.078 185.958 104.224 185.958 102.726C185.958 101.242 187.568 100.36 190.186 100.36ZM190.186 101.27C188.282 101.27 187.12 101.802 187.12 102.726C187.12 103.636 188.282 104.168 190.186 104.168C192.09 104.168 193.252 103.636 193.252 102.726C193.252 101.802 192.09 101.27 190.186 101.27ZM187.162 93.71H188.114V94.732C188.114 97.07 186.686 99.072 184.586 99.856L183.984 98.932C185.86 98.246 187.162 96.552 187.162 94.732V93.71ZM187.386 93.71H188.324V94.732C188.324 96.37 189.556 97.938 191.39 98.582L190.802 99.506C188.744 98.764 187.386 96.86 187.386 94.732V93.71ZM184.334 93.36H191.096V94.312H184.334V93.36ZM196.821 102.516H208.287V103.482H196.821V102.516ZM201.945 99.492H203.107V102.796H201.945V99.492ZM198.165 93.332H199.313V95.586H205.767V93.332H206.915V99.8H198.165V93.332ZM199.313 96.524V98.848H205.767V96.524H199.313ZM218.898 92.436H220.074V99.226H218.898V92.436ZM211.912 99.856H213.06V101.396H218.926V99.856H220.074V104.924H211.912V99.856ZM213.06 102.32V103.986H218.926V102.32H213.06ZM213.284 93.038C215.202 93.038 216.574 94.228 216.574 95.95C216.574 97.686 215.202 98.876 213.284 98.876C211.366 98.876 209.98 97.686 209.98 95.95C209.98 94.228 211.366 93.038 213.284 93.038ZM213.284 94.004C212.024 94.004 211.114 94.802 211.114 95.95C211.114 97.098 212.024 97.896 213.284 97.896C214.544 97.896 215.454 97.098 215.454 95.95C215.454 94.802 214.544 94.004 213.284 94.004ZM223.097 98.708H224.007C226.499 98.708 227.731 98.666 229.243 98.4L229.369 99.338C227.801 99.618 226.541 99.66 224.007 99.66H223.097V98.708ZM223.069 93.192H228.529V96.79H224.245V99.282H223.097V95.88H227.381V94.144H223.069V93.192ZM231.819 92.45H232.981V100.22H231.819V92.45ZM229.369 94.312H232.085V95.264H229.369V94.312ZM229.369 96.93H232.085V97.882H229.369V96.93ZM224.511 100.906H232.981V105.12H231.819V101.858H224.511V100.906Z" fill="#888888"/>
<path d="M360.496 92.422H361.672V105.092H360.496V92.422ZM361.35 97.56H363.688V98.526H361.35V97.56ZM357.262 93.794H358.396C358.396 97.392 356.744 100.64 352.656 102.698L352.012 101.802C355.512 100.024 357.262 97.322 357.262 93.976V93.794ZM352.6 93.794H357.864V94.746H352.6V93.794ZM374.019 92.436H375.195V99.226H374.019V92.436ZM367.033 99.856H368.181V101.396H374.047V99.856H375.195V104.924H367.033V99.856ZM368.181 102.32V103.986H374.047V102.32H368.181ZM368.405 93.038C370.323 93.038 371.695 94.228 371.695 95.95C371.695 97.686 370.323 98.876 368.405 98.876C366.487 98.876 365.101 97.686 365.101 95.95C365.101 94.228 366.487 93.038 368.405 93.038ZM368.405 94.004C367.145 94.004 366.235 94.802 366.235 95.95C366.235 97.098 367.145 97.896 368.405 97.896C369.665 97.896 370.575 97.098 370.575 95.95C370.575 94.802 369.665 94.004 368.405 94.004ZM380.962 97.686H382.124V99.604H380.962V97.686ZM381.508 93.01C383.342 93.01 384.63 94.018 384.63 95.516C384.63 97.014 383.342 98.008 381.508 98.008C379.688 98.008 378.4 97.014 378.4 95.516C378.4 94.018 379.688 93.01 381.508 93.01ZM381.508 93.906C380.318 93.906 379.492 94.564 379.492 95.516C379.492 96.482 380.318 97.126 381.508 97.126C382.712 97.126 383.538 96.482 383.538 95.516C383.538 94.564 382.712 93.906 381.508 93.906ZM386.338 92.45H387.5V102.124H386.338V92.45ZM387.01 96.72H389.348V97.686H387.01V96.72ZM379.492 103.846H387.948V104.812H379.492V103.846ZM379.492 101.298H380.654V104.266H379.492V101.298ZM377.826 100.248L377.672 99.296C379.898 99.296 382.978 99.268 385.554 98.876L385.638 99.73C382.992 100.22 379.996 100.248 377.826 100.248ZM393.771 99.856H394.919V102.964H393.771V99.856ZM397.817 99.828H398.951V102.95H397.817V99.828ZM390.579 102.572H402.045V103.538H390.579V102.572ZM391.965 93.374H400.631V97.196H393.155V99.744H392.007V96.272H399.483V94.312H391.965V93.374ZM392.007 99.226H400.925V100.178H392.007V99.226Z" fill="#5604B5"/>
</svg>
