<svg width="67" height="67" viewBox="0 0 67 67" fill="none" xmlns="http://www.w3.org/2000/svg">
<path d="M56.7522 34.5487C56.3046 34.0392 56.0578 33.3843 56.0578 32.7062C56.0578 32.028 56.3046 31.3731 56.7522 30.8637L60.3255 26.8437C60.7193 26.4044 60.9638 25.8518 61.0239 25.265C61.0841 24.6782 60.9569 24.0874 60.6605 23.5774L55.0772 13.9183C54.7838 13.4088 54.337 13.005 53.8007 12.7644C53.2643 12.5238 52.6657 12.4587 52.0901 12.5783L46.8417 13.6391C46.1739 13.7771 45.4787 13.6659 44.8873 13.3264C44.2958 12.987 43.8491 12.4428 43.6313 11.7966L41.9284 6.68784C41.7411 6.13335 41.3843 5.65175 40.9084 5.3111C40.4325 4.97045 39.8616 4.78799 39.2763 4.7895H28.1097C27.5009 4.75773 26.8985 4.92609 26.3944 5.26887C25.8903 5.61165 25.5122 6.11001 25.318 6.68784L23.7547 11.7966C23.5369 12.4428 23.0902 12.987 22.4987 13.3264C21.9073 13.6659 21.2121 13.7771 20.5442 13.6391L15.1563 12.5783C14.6107 12.5011 14.0545 12.5872 13.5577 12.8257C13.0609 13.0642 12.6458 13.4443 12.3647 13.9183L6.78133 23.5774C6.47748 24.0817 6.34086 24.6692 6.391 25.2558C6.44114 25.8425 6.67547 26.3982 7.06049 26.8437L10.6059 30.8637C11.0535 31.3731 11.3003 32.028 11.3003 32.7062C11.3003 33.3843 11.0535 34.0392 10.6059 34.5487L7.06049 38.5687C6.67547 39.0141 6.44114 39.5699 6.391 40.1565C6.34086 40.7431 6.47748 41.3306 6.78133 41.8349L12.3647 51.4941C12.6581 52.0035 13.1048 52.4073 13.6412 52.6479C14.1775 52.8885 14.7762 52.9537 15.3517 52.8341L20.6001 51.7733C21.2679 51.6353 21.9631 51.7465 22.5546 52.0859C23.146 52.4254 23.5927 52.9695 23.8105 53.6157L25.5134 58.7245C25.7077 59.3023 26.0857 59.8007 26.5898 60.1435C27.0939 60.4862 27.6963 60.6546 28.3051 60.6228H39.4717C40.057 60.6243 40.6279 60.4419 41.1038 60.1012C41.5797 59.7606 41.9365 59.279 42.1238 58.7245L43.8267 53.6157C44.0445 52.9695 44.4912 52.4254 45.0827 52.0859C45.6741 51.7465 46.3693 51.6353 47.0372 51.7733L52.2855 52.8341C52.8611 52.9537 53.4597 52.8885 53.9961 52.6479C54.5325 52.4073 54.9792 52.0035 55.2726 51.4941L60.8559 41.8349C61.1523 41.3249 61.2795 40.7341 61.2194 40.1473C61.1592 39.5605 60.9147 39.0079 60.5209 38.5687L56.7522 34.5487ZM52.5926 38.2895L54.8259 40.802L51.2526 46.9995L47.9584 46.3295C45.9478 45.9185 43.8563 46.26 42.0808 47.2893C40.3054 48.3185 38.9697 49.9638 38.3272 51.9128L37.2663 55.0395H30.1197L29.1147 51.857C28.4722 49.908 27.1364 48.2627 25.361 47.2334C23.5856 46.2042 21.494 45.8627 19.4834 46.2737L16.1892 46.9437L12.5601 40.7741L14.7934 38.2616C16.1668 36.7261 16.9261 34.7383 16.9261 32.6782C16.9261 30.6182 16.1668 28.6304 14.7934 27.0949L12.5601 24.5824L16.1334 18.4408L19.4276 19.1108C21.4382 19.5217 23.5297 19.1802 25.3052 18.151C27.0806 17.1217 28.4163 15.4764 29.0588 13.5274L30.1197 10.3728H37.2663L38.3272 13.5553C38.9697 15.5044 40.3054 17.1497 42.0808 18.1789C43.8563 19.2081 45.9478 19.5497 47.9584 19.1387L51.2526 18.4687L54.8259 24.6662L52.5926 27.1787C51.2346 28.7106 50.4848 30.6869 50.4848 32.7341C50.4848 34.7813 51.2346 36.7575 52.5926 38.2895ZM33.693 21.5395C31.4844 21.5395 29.3255 22.1944 27.4891 23.4214C25.6528 24.6484 24.2215 26.3924 23.3763 28.4329C22.5312 30.4733 22.31 32.7186 22.7409 34.8847C23.1718 37.0508 24.2353 39.0405 25.797 40.6022C27.3587 42.1639 29.3484 43.2274 31.5145 43.6583C33.6806 44.0891 35.9258 43.868 37.9663 43.0228C40.0067 42.1776 41.7507 40.7464 42.9777 38.91C44.2047 37.0737 44.8597 34.9147 44.8597 32.7062C44.8597 29.7446 43.6832 26.9043 41.589 24.8101C39.4949 22.716 36.6546 21.5395 33.693 21.5395ZM33.693 38.2895C32.5887 38.2895 31.5092 37.962 30.5911 37.3485C29.6729 36.735 28.9573 35.863 28.5347 34.8428C28.1121 33.8226 28.0015 32.7 28.2169 31.6169C28.4324 30.5339 28.9641 29.539 29.745 28.7582C30.5258 27.9773 31.5207 27.4455 32.6037 27.2301C33.6868 27.0147 34.8094 27.1252 35.8296 27.5478C36.8499 27.9704 37.7219 28.6861 38.3354 29.6042C38.9489 30.5224 39.2763 31.6019 39.2763 32.7062C39.2763 34.187 38.6881 35.6071 37.641 36.6542C36.5939 37.7013 35.1738 38.2895 33.693 38.2895Z" fill="#5604B5"/>
</svg>
