<svg width="60" height="60" viewBox="0 0 60 60" fill="none" xmlns="http://www.w3.org/2000/svg">
<mask id="mask0_2_46" style="mask-type:luminance" maskUnits="userSpaceOnUse" x="5" y="5" width="50" height="50">
<path fill-rule="evenodd" clip-rule="evenodd" d="M10 7.5H50C50.663 7.5 51.2989 7.76339 51.7678 8.23223C52.2366 8.70107 52.5 9.33696 52.5 10V45L40 27.5062C36.6663 29.4875 33.3337 30.4787 30 30.4787C26.6663 30.4787 23.3337 29.4875 20 27.5062L7.5 45V10C7.5 9.33696 7.76339 8.70107 8.23223 8.23223C8.70107 7.76339 9.33696 7.5 10 7.5Z" fill="#555555" stroke="white" stroke-width="5" stroke-linejoin="round"/>
<path d="M7.5 52.5H52.5" stroke="white" stroke-width="5" stroke-linecap="round"/>
</mask>
<g mask="url(#mask0_2_46)">
<path d="M0 0H60V60H0V0Z" fill="#5604B5"/>
</g>
</svg>
