<svg width="60" height="60" viewBox="0 0 60 60" fill="none" xmlns="http://www.w3.org/2000/svg">
<path d="M53.2477 24.4875C54.0947 24.3152 54.8562 23.8555 55.4033 23.1862C55.9504 22.517 56.2495 21.6793 56.25 20.8148V15C56.25 14.0054 55.8549 13.0516 55.1517 12.3483C54.4484 11.6451 53.4946 11.25 52.5 11.25H7.50001C6.50545 11.25 5.55162 11.6451 4.84836 12.3483C4.1451 13.0516 3.75001 14.0054 3.75001 15V20.8148C3.75048 21.6793 4.04957 22.517 4.59668 23.1862C5.14378 23.8555 5.90529 24.3152 6.75235 24.4875C8.01893 24.7502 9.15627 25.4413 9.9728 26.4446C10.7893 27.4478 11.2351 28.7018 11.2351 29.9953C11.2351 31.2888 10.7893 32.5428 9.9728 33.5461C9.15627 34.5493 8.01893 35.2405 6.75235 35.5031C5.90371 35.6758 5.14099 36.1369 4.59371 36.808C4.04642 37.4792 3.74832 38.3191 3.75001 39.1852V45C3.75001 45.9946 4.1451 46.9484 4.84836 47.6516C5.55162 48.3549 6.50545 48.75 7.50001 48.75H52.5C53.4946 48.75 54.4484 48.3549 55.1517 47.6516C55.8549 46.9484 56.25 45.9946 56.25 45V39.1852C56.2495 38.3207 55.9504 37.483 55.4033 36.8138C54.8562 36.1445 54.0947 35.6848 53.2477 35.5125C51.9811 35.2498 50.8437 34.5587 50.0272 33.5554C49.2107 32.5522 48.7649 31.2982 48.7649 30.0047C48.7649 28.7112 49.2107 27.4572 50.0272 26.4539C50.8437 25.4507 51.9811 24.7595 53.2477 24.4969V24.4875ZM7.50001 39.1875C9.61804 38.756 11.5219 37.6059 12.8893 35.9319C14.2567 34.2578 15.0036 32.1627 15.0036 30.0012C15.0036 27.8396 14.2567 25.7445 12.8893 24.0705C11.5219 22.3964 9.61804 21.2463 7.50001 20.8148V15H20.625V45H7.50001V39.1875ZM52.5 39.1875V45H24.375V15H52.5V20.8125C50.382 21.244 48.4781 22.3941 47.1107 24.0681C45.7433 25.7422 44.9964 27.8373 44.9964 29.9988C44.9964 32.1604 45.7433 34.2555 47.1107 35.9295C48.4781 37.6036 50.382 38.7537 52.5 39.1852V39.1875Z" fill="#5604B5"/>
</svg>
